# xmcd
#
# Track frame offsets:
#	150
#	12166
#	24757
#	37198
#	48820
#	60459
#	70580
#	83593
#	96029
#	108843
#	121294
#	132925
#
# Disc length: 1956 seconds
#
# Revision: 0
# Processed by: cddbd v1.5PL3 Copyright (c) Steve Scherf et al.
# Submitted via: dBpowerAMP V4.0
#
DISCID=8707a20c
DTITLE=Jimmy Reed - I'm Jimmy Reed
DYEAR=1900
DGENRE=
TTITLE0=Honest I do
TTITLE1=Go on to School
TTITLE2=My first Plea
TTITLE3=Boogie in the dark
TTITLE4=You got me crying
TTITLE5=Ain't that lovin' you baby
TTITLE6=You got me dizzy
TTITLE7=Little Rain
TTITLE8=Can't stand to see you go
TTITLE9=Roll and Rhumba
TTITLE10=You're Something Else
TTITLE11=You don't have to go 
EXTD=
EXTT0=
EXTT1=
EXTT2=
EXTT3=
EXTT4=
EXTT5=
EXTT6=
EXTT7=
EXTT8=
EXTT9=
EXTT10=
EXTT11=
PLAYORDER=
